<svg width="100%" height="100" viewBox="0 0 196 149" fill="none" xmlns="http://www.w3.org/2000/svg">
<g filter="url(#filter0_d)">
<path d="M169.143 31.7778H175C178.314 31.7778 181 34.4641 181 37.7778V128C181 131.314 178.314 134 175 134H98M169.143 31.7778V21.4159C169.143 17.598 165.615 14.7478 161.895 15.605C136.543 21.4455 121.722 27.5114 98.7411 40.6667M169.143 31.7778V106.963M98.7411 40.6667C73.3514 25.7819 57.9233 19.7304 33.4507 15.209C29.8117 14.5367 26.4866 17.3613 26.4866 21.0618V31.7778M98.7411 40.6667L98 134M98 134H21C17.6863 134 15 131.314 15 128V37.7778C15 34.4641 17.6863 31.7778 21 31.7778H26.4866M98 134C71.7437 127.107 56.3101 124.197 32.5499 123.995C29.2144 123.967 26.4866 121.279 26.4866 117.944V106.963M98 134C123.118 126.675 138.31 124.099 163.077 123.983C166.413 123.967 169.143 121.278 169.143 117.941V106.963M98 134C70.5432 117.916 55.0113 110.502 26.4866 106.963M98 134C124.377 119.705 139.837 113.468 169.143 106.963M26.4866 31.7778V106.963M44.6429 94C60.8745 96.3122 69.2476 99.0257 83.1786 105.852M44.6429 75.4815C59.2547 78.1194 67.6661 80.6859 83.1786 87.7037M44.6429 56.963C61.2993 60.1505 69.6587 62.9045 83.1786 69.1852M44.6429 38.4444C61.0692 41.9095 69.6599 44.5053 83.1786 51.037M113.562 51.037C126.593 44.5084 134.895 41.766 151.357 38.4444M113.562 69.1852C127.295 62.8493 135.523 60.1018 151.357 56.963M151.357 75.4815C136.607 77.6228 128.335 80.1065 113.562 87.7037M113.562 105.852C128.97 98.1485 137.183 95.8379 151.357 94" stroke="#2DE2E6" stroke-width="6" stroke-linecap="round"/>
</g>
<defs>
<filter id="filter0_d" x="0" y="0.108047" width="196" height="148.892" filterUnits="userSpaceOnUse" color-interpolation-filters="sRGB">
<feFlood flood-opacity="0" result="BackgroundImageFix"/>
<feColorMatrix in="SourceAlpha" type="matrix" values="0 0 0 0 0 0 0 0 0 0 0 0 0 0 0 0 0 0 127 0"/>
<feOffset/>
<feGaussianBlur stdDeviation="6"/>
<feColorMatrix type="matrix" values="0 0 0 0 0.176471 0 0 0 0 0.886275 0 0 0 0 0.901961 0 0 0 0.8 0"/>
<feBlend mode="normal" in2="BackgroundImageFix" result="effect1_dropShadow"/>
<feBlend mode="normal" in="SourceGraphic" in2="effect1_dropShadow" result="shape"/>
</filter>
</defs>
</svg>
