<svg width="100%" height="110" viewBox="0 0 171 165" fill="none" xmlns="http://www.w3.org/2000/svg">
<g filter="url(#filter0_d)">
<path d="M19 67.9942V146M19 67.9942L42.6846 85.1529M19 67.9942L42.7267 50.3956M19 146H152M19 146L72.7344 106.923M152 146V67.9942M152 146L98.1172 106.923M152 67.9942L128.25 85.1529M152 67.9942L128.25 50.6126M98.1172 106.923L85.0547 97.8939L72.7344 106.923M98.1172 106.923L128.25 85.1529M72.7344 106.923L42.6846 85.1529M128.25 85.1529V50.6126M42.6846 85.1529L42.7267 50.3956M57.7422 49.3438H112.812M57.7422 63.4056H112.812M57.7422 77.3193H112.812M42.7267 50.3956L42.75 31.1375H68.6907M68.6907 31.1375L85.0547 19L101.639 31.1375M68.6907 31.1375H101.639M101.639 31.1375H128.25V50.6126" stroke="#2DE2E6" stroke-width="6" stroke-linecap="round" stroke-linejoin="round"/>
</g>
<defs>
<filter id="filter0_d" x="0" y="0" width="171" height="165" filterUnits="userSpaceOnUse" color-interpolation-filters="sRGB">
<feFlood flood-opacity="0" result="BackgroundImageFix"/>
<feColorMatrix in="SourceAlpha" type="matrix" values="0 0 0 0 0 0 0 0 0 0 0 0 0 0 0 0 0 0 127 0"/>
<feOffset/>
<feGaussianBlur stdDeviation="8"/>
<feColorMatrix type="matrix" values="0 0 0 0 0.308333 0 0 0 0 0.917 0 0 0 0 1 0 0 0 0.5 0"/>
<feBlend mode="normal" in2="BackgroundImageFix" result="effect1_dropShadow"/>
<feBlend mode="normal" in="SourceGraphic" in2="effect1_dropShadow" result="shape"/>
</filter>
</defs>
</svg>
