<svg width="100%" height="130" viewBox="0 0 260 209" fill="none" xmlns="http://www.w3.org/2000/svg">
<g filter="url(#filter0_d)">
<path d="M60.0751 68.0544L62.0478 67.725L61.0201 61.5702L58.2785 67.1757L60.0751 68.0544ZM44.0451 92.6155L42.0556 92.8205L42.4351 96.5037L45.3073 94.1669L44.0451 92.6155ZM49.3884 68.0544L51.1542 68.9936L53.7936 64.0311L48.6128 66.2109L49.3884 68.0544ZM20 79.801L18.318 78.719L17.2841 80.3261L18.8426 81.4321L20 79.801ZM41.9078 57.3756L42.4762 59.2931L48.0725 57.634L42.6347 55.5124L41.9078 57.3756ZM20 43.4933L19.865 41.4978L16.7328 41.7097L18.2486 44.4589L20 43.4933ZM52.5945 49.3666L51.9743 51.268L56.0904 52.6105L54.4443 48.6061L52.5945 49.3666ZM49.9228 20L51.1574 18.4265L48.4175 16.2768L47.9416 19.7267L49.9228 20ZM63.8155 46.1629L61.8907 46.7061L63.2741 51.6086L65.5957 47.0744L63.8155 46.1629ZM65.9529 66.4525L66.9505 64.7191L63.4635 62.7123L63.9687 66.7037L65.9529 66.4525ZM91.601 73.3937L92.1331 75.3217L94.2819 74.7286L93.4601 72.6564L91.601 73.3937ZM75.0365 60.0453L74.6726 58.0787L68.4809 59.2245L74.199 61.8615L75.0365 60.0453ZM103.356 53.1041L103.172 55.0956L106.472 55.4018L105.204 52.3392L103.356 53.1041ZM75.0365 46.1629L73.8187 44.5765L69.1545 48.157L75.0345 48.1629L75.0365 46.1629ZM88.3949 25.8733L89.8743 27.2192L93.759 22.9492L88.0653 23.9007L88.3949 25.8733ZM95.1647 154.529C90.5578 142.451 83.6389 129.364 77.3126 115.239C70.9335 100.996 64.9973 85.3886 62.0478 67.725L58.1024 68.3838C61.1321 86.5276 67.2191 102.488 73.662 116.874C80.1578 131.378 86.8598 143.98 91.4274 155.954L95.1647 154.529ZM45.3073 94.1669C53.1137 87.8155 56.7468 79.4117 61.8718 68.9331L58.2785 67.1757C53.0003 77.9676 49.751 85.3947 42.7828 91.0641L45.3073 94.1669ZM46.0345 92.4105C45.5475 87.6838 45.6347 84.1416 46.4044 80.6771C47.1784 77.1928 48.669 73.6661 51.1542 68.9936L47.6226 67.1152C45.0697 71.9152 43.3879 75.8106 42.4996 79.8096C41.6068 83.8283 41.5414 87.8305 42.0556 92.8205L46.0345 92.4105ZM18.8426 81.4321C20.8738 82.8735 23.4931 82.6331 25.8111 81.9998C28.2263 81.3399 30.9487 80.0758 33.6977 78.6391C36.4533 77.1989 39.3959 75.4976 42.1928 73.9407C45.0271 72.363 47.7358 70.9195 50.164 69.8979L48.6128 66.2109C45.9649 67.325 43.09 68.8634 40.2473 70.4457C37.3672 72.0489 34.5392 73.6859 31.8449 75.0941C29.1438 76.5058 26.7367 77.6003 24.7569 78.1412C22.6798 78.7087 21.6384 78.5113 21.1574 78.17L18.8426 81.4321ZM21.682 80.883C26.063 74.0728 30.3295 68.9202 34.0103 65.3303C37.7514 61.6818 40.718 59.8144 42.4762 59.2931L41.3393 55.4581C38.6265 56.2624 35.0881 58.6919 31.2175 62.4667C27.2867 66.3003 22.8348 71.6976 18.318 78.719L21.682 80.883ZM18.2486 44.4589C21.7634 50.8339 27.9044 54.0589 41.1808 59.2388L42.6347 55.5124C29.1592 50.2548 24.4663 47.4516 21.7514 42.5276L18.2486 44.4589ZM53.2146 47.4652C38.3608 42.6204 30.5493 40.7751 19.865 41.4978L20.135 45.4887C30.0199 44.82 37.2239 46.457 51.9743 51.268L53.2146 47.4652ZM47.9416 19.7267C47.0302 26.3333 46.6714 31.4081 47.0833 36.1131C47.4978 40.8488 48.6839 45.114 50.7447 50.127L54.4443 48.6061C52.4922 43.8576 51.4382 39.9941 51.068 35.7643C50.6951 31.5037 51.007 26.776 51.904 20.2733L47.9416 19.7267ZM65.7403 45.6198C63.465 37.5566 61.5034 32.0633 59.2665 27.9394C56.9915 23.745 54.4595 21.0175 51.1574 18.4265L48.6882 21.5735C51.624 23.8769 53.772 26.199 55.7505 29.8466C57.7672 33.5646 59.633 38.7055 61.8907 46.7061L65.7403 45.6198ZM95.1595 132.046C91.6099 122.941 85.4529 112.526 80.003 101.615C74.4808 90.5592 69.5217 78.7225 67.937 66.2014L63.9687 66.7037C65.6395 79.9056 70.8433 92.2285 76.4245 103.402C82.0779 114.72 87.9649 124.604 91.4327 133.499L95.1595 132.046ZM91.0688 71.4658C87.724 72.389 84.8141 72.4498 81.2509 71.4626C77.5868 70.4475 73.2013 68.3167 66.9505 64.7191L64.9552 68.186C71.2379 71.8019 75.9963 74.1575 80.1828 75.3174C84.4702 76.5053 88.1176 76.43 92.1331 75.3217L91.0688 71.4658ZM74.199 61.8615C83.0074 65.9237 87.2221 67.7778 89.7418 74.1311L93.4601 72.6564C90.2561 64.5779 84.3899 62.1564 75.8741 58.2291L74.199 61.8615ZM103.541 51.1127C98.3124 50.6274 94.4942 51.8252 90.3336 53.366C86.2069 54.8942 81.6836 56.7813 74.6726 58.0787L75.4005 62.0119C82.8166 60.6396 87.6819 58.6134 91.7227 57.117C95.7296 55.6332 98.8577 54.6952 103.172 55.0956L103.541 51.1127ZM75.0345 48.1629C83.6491 48.1717 89.8495 48.3046 94.223 49.1859C98.5191 50.0516 100.54 51.5301 101.508 53.869L105.204 52.3392C103.507 48.2389 99.9298 46.2555 95.0131 45.2648C90.1738 44.2896 83.547 44.1716 75.0386 44.1629L75.0345 48.1629ZM86.9156 24.5274C84.0007 27.7314 82.2583 31.8137 80.5331 35.3311C78.7485 38.9696 76.9125 42.2015 73.8187 44.5765L76.2544 47.7494C80.1386 44.7676 82.3102 40.7914 84.1244 37.0926C85.998 33.2727 87.4459 29.8885 89.8743 27.2192L86.9156 24.5274ZM65.5957 47.0744C68.9665 40.4911 71.8056 36.2412 75.2079 33.3577C78.557 30.5191 82.6207 28.866 88.7246 27.846L88.0653 23.9007C81.5309 24.9926 76.7034 26.8467 72.6217 30.3062C68.5931 33.7207 65.4616 38.5596 62.0353 45.2514L65.5957 47.0744Z" fill="#2DE2E6"/>
</g>
<g filter="url(#filter1_d)">
<path d="M93.131 97.9441V190.966H131.873M225.499 97.9441V190.966H186.04M136.895 91.0937H181.376M136.895 91.0937V134.359M136.895 91.0937H107.838V134.359H122.367H136.895M181.376 91.0937V134.359M181.376 91.0937H195.725H210.074V134.359H181.376M131.873 190.966V180.51H186.04V190.966M131.873 190.966H186.04M76.9885 190.966H242M136.895 134.359V180.51H181.376V134.359M235.902 93.257L159.136 37.0115L82.0106 93.257L88.8263 100.107L159.136 49.2701L229.804 100.107L235.902 93.257Z" stroke="#2DE2E6" stroke-width="4" stroke-linecap="round" stroke-linejoin="round"/>
</g>
<g filter="url(#filter2_d)">
<path d="M112.713 106.099V96.0597H131.545V106.099M112.713 106.099V129.045H131.545V106.099M112.713 106.099H131.545M186.593 105.74V95.7011H205.425V105.74M186.593 105.74V128.687H205.425V105.74M186.593 105.74H205.425M141.685 148.406H156.172V175.655H141.685V148.406ZM161.604 148.406H176.09V175.655H161.604V148.406ZM161.604 96.0597H176.09V142.67H161.604V96.0597ZM141.685 96.0597H156.172V142.67H141.685V96.0597Z" stroke="#2DE2E6" stroke-width="2.5" stroke-linecap="round" stroke-linejoin="round"/>
</g>
<defs>
<filter id="filter0_d" x="0.732788" y="0.276764" width="121.739" height="171.677" filterUnits="userSpaceOnUse" color-interpolation-filters="sRGB">
<feFlood flood-opacity="0" result="BackgroundImageFix"/>
<feColorMatrix in="SourceAlpha" type="matrix" values="0 0 0 0 0 0 0 0 0 0 0 0 0 0 0 0 0 0 127 0"/>
<feOffset/>
<feGaussianBlur stdDeviation="8"/>
<feColorMatrix type="matrix" values="0 0 0 0 0.308333 0 0 0 0 0.917 0 0 0 0 1 0 0 0 0.5 0"/>
<feBlend mode="normal" in2="BackgroundImageFix" result="effect1_dropShadow"/>
<feBlend mode="normal" in="SourceGraphic" in2="effect1_dropShadow" result="shape"/>
</filter>
<filter id="filter1_d" x="58.9885" y="19.0115" width="201.011" height="189.954" filterUnits="userSpaceOnUse" color-interpolation-filters="sRGB">
<feFlood flood-opacity="0" result="BackgroundImageFix"/>
<feColorMatrix in="SourceAlpha" type="matrix" values="0 0 0 0 0 0 0 0 0 0 0 0 0 0 0 0 0 0 127 0"/>
<feOffset/>
<feGaussianBlur stdDeviation="8"/>
<feColorMatrix type="matrix" values="0 0 0 0 0.308333 0 0 0 0 0.917 0 0 0 0 1 0 0 0 0.5 0"/>
<feBlend mode="normal" in2="BackgroundImageFix" result="effect1_dropShadow"/>
<feBlend mode="normal" in="SourceGraphic" in2="effect1_dropShadow" result="shape"/>
</filter>
<filter id="filter2_d" x="95.4626" y="78.4511" width="127.213" height="114.454" filterUnits="userSpaceOnUse" color-interpolation-filters="sRGB">
<feFlood flood-opacity="0" result="BackgroundImageFix"/>
<feColorMatrix in="SourceAlpha" type="matrix" values="0 0 0 0 0 0 0 0 0 0 0 0 0 0 0 0 0 0 127 0"/>
<feOffset/>
<feGaussianBlur stdDeviation="8"/>
<feColorMatrix type="matrix" values="0 0 0 0 0.308333 0 0 0 0 0.917 0 0 0 0 1 0 0 0 0.5 0"/>
<feBlend mode="normal" in2="BackgroundImageFix" result="effect1_dropShadow"/>
<feBlend mode="normal" in="SourceGraphic" in2="effect1_dropShadow" result="shape"/>
</filter>
</defs>
</svg>
