<svg width="auto" height="178" viewBox="0 0 172 178" fill="none" xmlns="http://www.w3.org/2000/svg">
<g filter="url(#filter0_d)">
<path d="M42.5944 121.483L51.0564 129.955M42.5944 121.483L62.197 101.859M42.5944 121.483L40.7748 127.456M59.5184 138.426L51.0564 129.955M59.5184 138.426L49.0474 141.623M59.5184 138.426L70.4763 127.456M125.266 38.721L137.076 26.8979L154 43.8403L142.19 55.6635M125.266 38.721L142.19 55.6635M125.266 38.721L120.883 43.109M142.19 55.6635L120.883 76.994M51.0564 129.955C51.0564 129.955 98.2147 82.7445 128.432 52.4944L51.0564 129.955ZM39.5506 131.474L35.1674 145.861L49.0474 141.623M39.5506 131.474L49.0474 141.623M39.5506 131.474L40.7748 127.456M31.5148 38.721C31.5148 38.721 76.855 38.721 105.907 38.721M31.5148 81.1382H82.8953M82.8953 81.1382L105.298 58.7107M82.8953 81.1382L62.197 101.859M31.5148 58.7107H105.298M105.298 58.7107L120.883 43.109M31.5148 101.859H62.197M96.0448 101.859H105.907M96.0448 101.859L70.4763 127.456M96.0448 101.859L120.883 76.994M31.5148 127.456H40.7748M70.4763 127.456H105.907M120.883 43.109V18H18V160H120.883V76.994" stroke="#2DE2E6" stroke-width="4" stroke-linecap="round" stroke-linejoin="round"/>
</g>
<defs>
<filter id="filter0_d" x="0" y="0" width="172" height="178" filterUnits="userSpaceOnUse" color-interpolation-filters="sRGB">
<feFlood flood-opacity="0" result="BackgroundImageFix"/>
<feColorMatrix in="SourceAlpha" type="matrix" values="0 0 0 0 0 0 0 0 0 0 0 0 0 0 0 0 0 0 127 0"/>
<feOffset/>
<feGaussianBlur stdDeviation="8"/>
<feColorMatrix type="matrix" values="0 0 0 0 0.308333 0 0 0 0 0.917 0 0 0 0 1 0 0 0 0.5 0"/>
<feBlend mode="normal" in2="BackgroundImageFix" result="effect1_dropShadow"/>
<feBlend mode="normal" in="SourceGraphic" in2="effect1_dropShadow" result="shape"/>
</filter>
</defs>
</svg>
