<svg width="100%" height="100%" viewBox="0 0 1454 481" fill="none" xmlns="http://www.w3.org/2000/svg">
<g opacity="0.6" filter="url(#filter0_d)">
<path d="M727 18L277.783 481M727 18L221.459 481M727 18L390.431 481M727 18L334.107 481M727 18L108.81 481M727 18L52.4859 481M727 18L165.135 481M727 18L503.08 481M727 18L446.755 481M727 18L1178.97 481M727 18L1122.65 481M727 18L1291.62 481M727 18L1235.3 481M727 18L1404.27 481M727 18L1347.94 481M727 18L615.728 481M727 18L559.404 481M727 18L728.377 481M727 18L672.053 481M727 18L841.025 481M727 18L784.701 481M727 18L953.674 481M727 18L897.35 481M727 18L1010 481M727 18L1066.32 481M727 18L1454 481H0L727 18ZM116.87 406.57H1337.13M87.6532 425.177H1366.35M175.303 369.356H1278.7M146.087 387.963H1307.91M29.2199 462.391H1424.78M0 480.998H1454M58.4366 443.784H1395.56M233.736 332.142H1220.26M204.52 350.749H1249.48M584.336 108.857H869.664M556.651 126.489H897.35M642.77 71.6434H811.23M613.553 90.2504H840.447M701.203 34.4293H752.797M671.986 53.0363H782.014M292.17 294.928H1161.83M262.953 313.535H1191.05M350.603 257.714H1103.4M321.386 276.321H1132.61M409.036 220.5H1044.96M379.82 239.107H1074.18M467.47 183.286H986.53M438.253 201.893H1015.75M496.686 164.678H957.314M525.903 146.071H928.097" stroke="#2DE2E6" stroke-width="2"/>
</g>
<defs>
<filter id="filter0_d" x="-19.4318" y="0.814392" width="1492.86" height="497.186" filterUnits="userSpaceOnUse" color-interpolation-filters="sRGB">
<feFlood flood-opacity="0" result="BackgroundImageFix"/>
<feColorMatrix in="SourceAlpha" type="matrix" values="0 0 0 0 0 0 0 0 0 0 0 0 0 0 0 0 0 0 127 0"/>
<feOffset/>
<feGaussianBlur stdDeviation="8"/>
<feColorMatrix type="matrix" values="0 0 0 0 0.308333 0 0 0 0 0.917 0 0 0 0 1 0 0 0 0.5 0"/>
<feBlend mode="normal" in2="BackgroundImageFix" result="effect1_dropShadow"/>
<feBlend mode="normal" in="SourceGraphic" in2="effect1_dropShadow" result="shape"/>
</filter>
</defs>
</svg>
