<svg width="260" height="246" viewBox="0 0 260 246" fill="none" xmlns="http://www.w3.org/2000/svg">
<g filter="url(#filter0_d)">
<path d="M40 180V174H46V180H40ZM34 204H40V210H34H28H22V204H28H34ZM40 204V198H46V204H40ZM22 204H16V198V192V186V180V174H22V180V186V192V198V204ZM40 174H34H28H22V168H28H34H40V174ZM70 204H76V210H70H64H58V204H64H70ZM76 204V198V192V186H82V192V198V204H76ZM58 204H52V198V192V186H58V192V198V204ZM76 186H70H64H58V180H64H70H76V186ZM112 210V204V198V192V186H118V192V198V204V210H112ZM88 210V204V198V192V186V180H94H100H106H112V186H106H100H94V192V198V204V210H88ZM136 210H130V204V198V192V186V180H124V174H130V168H136V174H142V180H136V186V192V198V204H142V210H136ZM166 204H172V210H166H160H154V204H160H166ZM172 204V198H166H160H154V204H148V198H154V192H160H166H172V186H178V192V198V204H172ZM172 186H166H160H154V180H160H166H172V186ZM208 192V186H214V192H208ZM202 204H208V210H202H196H190V204H196H202ZM208 204V198H214V204H208ZM190 204H184V198V192V186H190V192V198V204ZM208 186H202H196H190V180H196H202H208V186ZM232 210H226V204V198V192V186V180H220V174H226V168H232V174H238V180H232V186V192V198V204H238V210H232Z" fill="#2DE2E6"/>
<path d="M16 224.344H244V229.125H16V224.344Z" fill="#2DE2E6"/>
</g>
<g filter="url(#filter1_d)">
<path d="M63 67.9942V146M63 67.9942L86.6846 85.1529M63 67.9942L86.7267 50.3956M63 146H196M63 146L116.734 106.923M196 146V67.9942M196 146L142.117 106.923M196 67.9942L172.25 85.1529M196 67.9942L172.25 50.6126M142.117 106.923L129.055 97.8939L116.734 106.923M142.117 106.923L172.25 85.1529M116.734 106.923L86.6846 85.1529M172.25 85.1529V50.6126M86.6846 85.1529L86.7267 50.3956M101.742 49.3438H156.812M101.742 63.4056H156.812M101.742 77.3193H156.812M86.7267 50.3956L86.75 31.1375H112.691M112.691 31.1375L129.055 19L145.639 31.1375M112.691 31.1375H145.639M145.639 31.1375H172.25V50.6126" stroke="#2DE2E6" stroke-width="6" stroke-linecap="round" stroke-linejoin="round"/>
</g>
<defs>
<filter id="filter0_d" x="0" y="152" width="260" height="93.125" filterUnits="userSpaceOnUse" color-interpolation-filters="sRGB">
<feFlood flood-opacity="0" result="BackgroundImageFix"/>
<feColorMatrix in="SourceAlpha" type="matrix" values="0 0 0 0 0 0 0 0 0 0 0 0 0 0 0 0 0 0 127 0"/>
<feOffset/>
<feGaussianBlur stdDeviation="8"/>
<feColorMatrix type="matrix" values="0 0 0 0 0.308333 0 0 0 0 0.917 0 0 0 0 1 0 0 0 0.5 0"/>
<feBlend mode="normal" in2="BackgroundImageFix" result="effect1_dropShadow"/>
<feBlend mode="normal" in="SourceGraphic" in2="effect1_dropShadow" result="shape"/>
</filter>
<filter id="filter1_d" x="44" y="0" width="171" height="165" filterUnits="userSpaceOnUse" color-interpolation-filters="sRGB">
<feFlood flood-opacity="0" result="BackgroundImageFix"/>
<feColorMatrix in="SourceAlpha" type="matrix" values="0 0 0 0 0 0 0 0 0 0 0 0 0 0 0 0 0 0 127 0"/>
<feOffset/>
<feGaussianBlur stdDeviation="8"/>
<feColorMatrix type="matrix" values="0 0 0 0 0.308333 0 0 0 0 0.917 0 0 0 0 1 0 0 0 0.5 0"/>
<feBlend mode="normal" in2="BackgroundImageFix" result="effect1_dropShadow"/>
<feBlend mode="normal" in="SourceGraphic" in2="effect1_dropShadow" result="shape"/>
</filter>
</defs>
</svg>
