<svg width="603" height="603" viewBox="0 0 603 603" fill="none" xmlns="http://www.w3.org/2000/svg">
<path opacity="0.6" fill-rule="evenodd" clip-rule="evenodd" d="M596.928 362C600.91 342.454 603 322.221 603 301.5C603 134.986 468.014 0 301.5 0C134.986 0 0 134.986 0 301.5C0 322.221 2.09039 342.454 6.07178 362H596.928ZM9.02246 375C11.4946 384.869 14.453 394.544 17.8708 404H585.129C588.547 394.544 591.505 384.869 593.978 375H9.02246ZM104.794 530C98.8629 524.889 93.1326 519.551 87.6169 514H515.383C509.867 519.551 504.137 524.889 498.206 530H104.794ZM67.7958 492C72.2828 497.498 76.96 502.835 81.8172 508H521.183C526.04 502.835 530.717 497.498 535.204 492H67.7958ZM63.0244 486C53.0473 473.123 44.0901 459.416 36.2739 445H566.726C558.91 459.416 549.953 473.123 539.976 486H63.0244ZM111.979 536C123.307 545.166 135.312 553.529 147.908 561H455.092C467.688 553.529 479.693 545.166 491.021 536H111.979ZM580.085 417C576.976 424.491 573.573 431.829 569.892 439H33.1078C29.4265 431.829 26.0242 424.491 22.9151 417H580.085ZM158.506 567C201.057 589.965 249.756 603 301.5 603C353.244 603 401.943 589.965 444.494 567H158.506Z" fill="url(#paint0_linear)"/>
<defs>
<linearGradient id="paint0_linear" x1="301.5" y1="0" x2="301.5" y2="603" gradientUnits="userSpaceOnUse">
<stop stop-color="#FF6C11"/>
<stop offset="1" stop-color="#920075" stop-opacity="0.51"/>
</linearGradient>
</defs>
</svg>
